<svg id="Layer_1" data-name="Layer 1" xmlns="http://www.w3.org/2000/svg" viewBox="0 0 567.48 110.23"><defs><style>.cls-1{fill:#fff;}</style></defs><title>logo</title><path class="cls-1" d="M188,71.57h32.37L185.25,178.65H151.2L116.26,71.57h32.52l14.58,54.27q4.54,18.09,5,25.2.51-5.13,2.05-12.82t2.71-12.08Z" transform="translate(-116.26 -69.89)"/><path class="cls-1" d="M320.85,125q0,27-13.26,41.09t-38.82,14.06q-25.2,0-38.64-14.14T216.7,124.82q0-26.73,13.37-40.83t38.85-14.1q25.56,0,38.75,14T320.85,125Zm-73.68,0q0,31.06,21.61,31.05,11,0,16.3-7.54T290.39,125q0-16-5.38-23.69t-16.08-7.65Q247.17,93.62,247.17,125Z" transform="translate(-116.26 -69.89)"/><path class="cls-1" d="M430.89,178.65H393l-39.11-75.44h-.66q1.39,17.8,1.39,27.17v48.27H328.94V71.57h37.79l39,74.41h.44q-1-16.19-1-26V71.57h25.78Z" transform="translate(-116.26 -69.89)"/><path class="cls-1" d="M442.79,178.65V71.57h29.08V178.65Z" transform="translate(-116.26 -69.89)"/><path class="cls-1" d="M526.75,116H573v57.71a127,127,0,0,1-41.38,6.45q-24.76,0-38.27-14.36T479.8,124.82q0-25.93,14.79-40.36T536.05,70a91.81,91.81,0,0,1,19.08,1.9,80.73,80.73,0,0,1,15.64,4.83l-9.16,22.71a56.62,56.62,0,0,0-25.42-5.71q-12.67,0-19.59,8.24t-6.92,23.55q0,15,6.26,22.89T534,156.31a53,53,0,0,0,11.87-1.25V138.29H526.75Z" transform="translate(-116.26 -69.89)"/><path class="cls-1" d="M683.74,125q0,27-13.26,41.09t-38.82,14.06q-25.2,0-38.64-14.14t-13.44-41.16Q579.59,98.08,593,84t38.85-14.1q25.56,0,38.75,14T683.74,125Zm-73.68,0q0,31.06,21.61,31.05,11,0,16.3-7.54T653.27,125q0-16-5.38-23.69t-16.08-7.65Q610.06,93.62,610.06,125Z" transform="translate(-116.26 -69.89)"/></svg>